<svg xmlns="http://www.w3.org/2000/svg" width="1200" height="1200" viewBox="0 0 1200 1200" version="1.1"><path d="" stroke="none" fill="#6064ec" fill-rule="evenodd"/><path d="M 557.500 101.447 C 499.222 106.950, 448.623 119.876, 398.042 142.184 C 237.714 212.893, 124.882 364.577, 103.611 538 C 99.432 572.069, 98.909 622.710, 102.424 653 C 112.110 736.473, 138.412 809.140, 183.501 877 C 202.734 905.946, 220.507 927.555, 246.469 953.558 C 321.176 1028.384, 415.967 1076.979, 520.272 1093.925 C 527.296 1095.066, 533.465 1096, 533.979 1096 C 534.494 1096, 531.193 1090.900, 526.644 1084.668 C 506.096 1056.517, 490.341 1027.443, 476.972 993 L 471.344 978.500 461.422 974.913 C 426.589 962.321, 390.801 942.726, 359.551 919.136 C 230.923 822.037, 173.159 657.194, 212.964 500.819 C 220.224 472.300, 232.153 440.804, 244.938 416.403 C 260.945 385.852, 283.603 353.410, 304.652 330.902 L 311.940 323.109 316.513 328.304 C 321.850 334.368, 328.128 346.344, 330.940 355.827 C 334.947 369.339, 336.108 379.846, 336.984 410.500 C 337.907 442.781, 338.693 448.388, 343.433 456.476 C 346.858 462.320, 354.887 467.684, 366.497 471.886 C 376.892 475.647, 384.490 477.594, 412 483.546 C 423.825 486.105, 436.200 489.116, 439.500 490.238 C 458.062 496.547, 470.609 506.581, 496.029 535.441 C 505.262 545.923, 514.289 555.586, 516.090 556.914 L 519.363 559.328 522.234 555.914 C 530.068 546.600, 535.179 533.350, 535.314 522 C 535.410 513.991, 534.282 510.778, 528.997 504 C 511.571 481.654, 503.686 435.336, 511.075 398.728 C 513.697 385.736, 517.070 378.850, 524.456 371.415 C 531.196 364.631, 539.223 360.318, 550.500 357.423 C 558.102 355.472, 575.301 355.096, 614.508 356.026 L 634.515 356.500 641.179 353.226 C 653.306 347.268, 661.451 336.122, 671.966 311.097 C 678.974 294.420, 682.071 290.288, 697.444 277.102 C 712.434 264.245, 755.238 233, 757.862 233 C 759.634 233, 781.867 243.889, 794.529 250.959 C 847.008 280.259, 892.428 321.366, 927.716 371.500 C 943.541 393.983, 961.295 427.079, 971.435 453 C 974.125 459.875, 976.883 466.913, 977.566 468.641 C 978.479 470.951, 979.823 472.107, 982.653 473.013 C 984.769 473.690, 991.921 476.393, 998.546 479.019 C 1029.362 491.234, 1059.356 507.900, 1086.288 527.773 C 1091.121 531.340, 1095.295 534.038, 1095.563 533.770 C 1095.831 533.502, 1095.154 527.707, 1094.058 520.891 C 1082.679 450.110, 1057.065 384.454, 1017.333 324.221 C 998.348 295.440, 979.135 272.020, 953.552 246.475 C 897.160 190.165, 831.687 149.711, 756.902 124.968 C 724.210 114.151, 694.014 107.503, 656.500 102.862 C 635.590 100.276, 578.545 99.460, 557.500 101.447 M 824.500 550.621 C 753.360 557.856, 691.918 585.775, 642.106 633.500 C 594.498 679.114, 563.231 739.778, 552.792 806.788 C 550.782 819.690, 550.506 825.068, 550.546 850.500 C 550.585 875.261, 550.912 881.546, 552.782 893.500 C 562.700 956.876, 590.016 1012.509, 633.500 1057.894 C 679.114 1105.502, 739.778 1136.769, 806.788 1147.208 C 819.690 1149.218, 825.068 1149.494, 850.500 1149.454 C 875.261 1149.415, 881.546 1149.088, 893.500 1147.218 C 956.876 1137.300, 1012.509 1109.984, 1057.894 1066.500 C 1105.502 1020.886, 1136.769 960.222, 1147.208 893.212 C 1149.218 880.310, 1149.494 874.932, 1149.454 849.500 C 1149.415 824.739, 1149.088 818.454, 1147.218 806.500 C 1137.300 743.124, 1109.984 687.491, 1066.500 642.106 C 1021.173 594.797, 960.253 563.266, 894.271 552.963 C 883.395 551.265, 875.035 550.750, 854.500 550.514 C 840.200 550.349, 826.700 550.397, 824.500 550.621 M 834.400 651.046 C 782.397 654.995, 731.043 681.250, 697.899 720.835 C 663.960 761.369, 647.347 811.882, 651.026 863.357 C 655.513 926.156, 688.052 982.111, 740.113 1016.553 C 798.122 1054.931, 872.782 1060.099, 935.500 1030.077 C 969.584 1013.762, 996.104 990.796, 1016.553 959.887 C 1063.048 889.610, 1059.997 797.170, 1008.949 729.500 C 986.499 699.738, 956.305 677.081, 920.842 663.386 C 895.357 653.543, 862.772 648.892, 834.400 651.046 M 800 800 L 800 900 900 900 L 1000 900 1000 850 L 1000 800 950 800 L 900 800 900 750 L 900 700 850 700 L 800 700 800 800" stroke="none" fill="#5c64ec" fill-rule="evenodd"/></svg>